<?xml version="1.0" standalone="no"?>
<!DOCTYPE svg PUBLIC "-//W3C//DTD SVG 20010904//EN"
 "http://www.w3.org/TR/2001/REC-SVG-20010904/DTD/svg10.dtd">
<svg version="1.0" xmlns="http://www.w3.org/2000/svg"
 width="500.000000pt" height="500.000000pt" viewBox="0 0 500.000000 500.000000"
 preserveAspectRatio="xMidYMid meet">
<metadata>
Created by potrace 1.11, written by Peter Selinger 2001-2013
</metadata>
<g transform="translate(0.000000,500.000000) scale(0.100000,-0.100000)"
fill="#000000" stroke="none">
<path d="M0 2500 l0 -2500 2500 0 2500 0 0 2500 0 2500 -2500 0 -2500 0 0
-2500z m2940 1966 c164 -22 543 -109 708 -161 7 -3 11 -14 8 -27 -3 -13 -10
-215 -17 -451 l-12 -427 -235 2 -236 3 -57 309 c-38 202 -64 315 -74 326 -22
24 -99 56 -193 82 -105 28 -336 30 -432 4 -149 -41 -253 -121 -309 -239 -70
-147 -58 -341 29 -477 38 -60 168 -185 245 -237 81 -54 255 -148 525 -283 378
-189 558 -301 692 -428 151 -144 253 -307 300 -477 18 -68 22 -106 21 -250 0
-150 -3 -181 -25 -266 -65 -241 -173 -418 -337 -550 -264 -214 -543 -306 -986
-325 -331 -14 -619 29 -1114 165 -101 28 -193 51 -205 51 -12 0 -26 4 -32 8
-7 5 -3 144 12 457 13 248 23 460 23 473 l1 22 239 0 239 0 62 -322 c48 -244
68 -328 82 -345 43 -47 194 -109 328 -134 105 -19 341 -17 435 5 259 59 404
234 405 486 0 141 -48 251 -159 361 -123 122 -251 199 -611 369 -372 175 -523
274 -726 475 -182 180 -247 296 -294 525 -25 122 -31 339 -11 435 64 314 254
555 557 708 136 69 361 127 564 147 124 12 456 4 590 -14z"/>
</g>
</svg>
